<?xml version="1.0" standalone="no"?>
<!DOCTYPE svg PUBLIC "-//W3C//DTD SVG 20010904//EN"
 "http://www.w3.org/TR/2001/REC-SVG-20010904/DTD/svg10.dtd">
<svg version="1.0" xmlns="http://www.w3.org/2000/svg"
 width="260.000000pt" height="260.000000pt" viewBox="0 0 260.000000 260.000000"
 preserveAspectRatio="xMidYMid meet">
<metadata>
Created by potrace 1.11, written by Peter Selinger 2001-2013
</metadata>
<g transform="translate(0.000000,260.000000) scale(0.100000,-0.100000)"
fill="#000000" stroke="none">
<path d="M164 1906 c-72 -49 -107 -92 -94 -117 6 -10 15 -19 20 -19 5 0 56
-79 114 -176 l106 -176 -38 -65 c-20 -35 -41 -72 -47 -81 -5 -10 -38 -65 -72
-122 -34 -58 -78 -123 -97 -144 -20 -22 -37 -44 -37 -50 -5 -41 10 -55 98 -97
82 -38 128 -39 146 -1 8 15 17 41 20 58 5 25 123 241 147 267 10 12 142 -216
160 -277 22 -72 51 -81 127 -41 30 17 68 45 84 63 25 28 27 36 18 60 -6 15
-23 41 -38 57 -16 17 -72 107 -125 202 l-97 171 101 149 c57 81 120 163 142
182 46 40 63 74 48 101 -6 11 -44 36 -84 56 -57 28 -81 35 -103 29 -35 -8 -53
-23 -53 -42 0 -13 -167 -263 -175 -263 -2 0 -105 182 -164 290 -15 27 -54 22
-107 -14z"/>
<path d="M1024 1906 c-72 -49 -107 -92 -94 -117 6 -10 15 -19 20 -19 11 0 222
-349 217 -358 -43 -80 -225 -377 -241 -394 -46 -47 -59 -74 -44 -98 17 -29
146 -90 189 -90 38 0 61 27 72 86 5 25 123 241 147 267 10 12 148 -226 159
-275 18 -79 59 -87 148 -29 100 65 109 96 44 166 -16 17 -72 107 -126 202
l-97 172 65 93 c35 51 84 122 108 157 24 35 53 68 65 73 12 6 31 27 43 49 30
52 19 69 -73 115 -57 28 -81 35 -103 29 -34 -8 -53 -23 -53 -42 0 -12 -103
-170 -159 -242 l-18 -23 -77 138 c-42 77 -80 146 -85 154 -15 27 -54 22 -107
-14z"/>
<path d="M1874 1906 c-72 -49 -107 -92 -94 -117 6 -10 15 -19 20 -19 5 0 46
-62 91 -137 44 -76 92 -155 106 -175 l25 -37 -108 -186 c-60 -103 -121 -199
-136 -215 -75 -80 -69 -104 35 -154 93 -45 141 -48 160 -8 8 15 17 41 20 58 5
25 123 241 147 267 10 12 146 -221 162 -279 19 -70 50 -79 124 -39 113 61 131
105 71 172 -19 21 -78 115 -131 210 l-98 172 108 156 c60 86 120 164 135 172
30 18 61 75 53 97 -8 21 -73 61 -130 81 -60 21 -99 10 -115 -32 -9 -25 -111
-181 -158 -242 l-18 -23 -77 138 c-42 77 -80 146 -85 154 -15 27 -54 22 -107
-14z"/>
</g>
</svg>
